# xmcd
#
# Track frame offsets: 
#        150
#        17175
#        36382
#        51890
#        70396
#        95954
#        114968
#        135731
#        152063
#        169338
#
# Disc length: 2525 seconds
#
# Revision: 1
# Processed by: cddbd v1.5.2PL0 Copyright (c) Steve Scherf et al.
# Submitted via: ExactAudioCopy v0.95b4
#
DISCID=8f09db0a
DTITLE=Miki Howard - Pillow Talk
DYEAR=2006
DGENRE=Soul
TTITLE0=I Can't Stand The Rain
TTITLE1=Do That To Me One More Time
TTITLE2=Go Away Little Boy
TTITLE3=Pillow Talk
TTITLE4=This Masquerade
TTITLE5=Inseparable
TTITLE6=Lowdown
TTITLE7=Misty Blue
TTITLE8=Just Don't Want To Be Lonely
TTITLE9=Which Way Is Up
EXTD=
EXTT0=
EXTT1=
EXTT2=
EXTT3=
EXTT4=
EXTT5=
EXTT6=
EXTT7=
EXTT8=
EXTT9=
PLAYORDER=
